<svg width="40" height="38" viewBox="0 0 40 38" fill="none" xmlns="http://www.w3.org/2000/svg">
<path d="M20.835 36.9989C20.8575 37.0483 20.835 37.0865 20.7811 37.0865H20.4802C20.4263 37.0865 20.4038 37.064 20.3724 36.9989L19.9524 36.0825H18.0703L17.6503 36.9989C17.6166 37.064 17.5964 37.0865 17.5358 37.0865H17.2236C17.1742 37.0865 17.154 37.0483 17.1742 36.9989L18.9327 33.2953C18.9597 33.2527 18.9709 33.2212 19.0024 33.2212H19.0181C19.045 33.2212 19.063 33.2527 19.0832 33.2953L20.835 36.9989ZM18.9979 33.9579L18.205 35.7165H19.8064L19.0136 33.9579H18.9979Z" fill="#212427" stroke="#212427" stroke-width="0.369231"/>
<path d="M21.7662 33.3088C21.7662 33.2437 21.7864 33.2212 21.8515 33.2212H22.1098C22.1749 33.2212 22.1906 33.2437 22.1906 33.3088V36.9023C22.1906 36.9674 22.1749 36.9899 22.1098 36.9899H21.8515C21.7864 36.9899 21.7662 36.9674 21.7662 36.9023V33.3088Z" fill="#212427" stroke="#212427" stroke-width="0.369231"/>
<path d="M30.7745 28.8219L34.2057 31.6313C34.2386 31.6531 34.2624 31.6861 34.2727 31.7242C34.2701 31.764 34.2533 31.8015 34.2253 31.8299L33.8877 32.2458C33.8539 32.2874 33.8221 32.3111 33.7925 32.3125C33.7526 32.3105 33.7149 32.2936 33.6869 32.2652L30.6901 29.8112L29.3672 31.426C29.3332 31.4698 29.3016 31.4913 29.2743 31.4929C29.2319 31.4909 29.1919 31.4729 29.1622 31.4426L28.8441 31.1831C28.8112 31.1605 28.7875 31.1267 28.7774 31.088C28.7802 31.0483 28.797 31.0108 28.8247 30.9823L30.5755 28.846C30.5973 28.8131 30.6303 28.7893 30.6684 28.7791C30.7079 28.7793 30.7459 28.7946 30.7745 28.8219Z" fill="#212427" stroke="#212427" stroke-width="0.369231"/>
<path d="M34.3642 17.9821L38.773 17.5329C38.812 17.5239 38.8531 17.5303 38.8875 17.5509C38.9145 17.5803 38.9298 17.6187 38.9302 17.6587L38.9841 18.1887C38.9921 18.2271 38.9857 18.2671 38.9661 18.301C38.9367 18.3281 38.8983 18.3433 38.8583 18.3437L35.0043 18.7457L35.2289 20.8232C35.2362 20.8618 35.229 20.9018 35.2087 20.9355C35.1771 20.9634 35.1363 20.9786 35.0941 20.9782L34.6854 21.0208C34.6665 21.0276 34.6462 21.0293 34.6264 21.026C34.6066 21.0226 34.5881 21.0142 34.5725 21.0015C34.557 20.9889 34.5449 20.9725 34.5375 20.9538C34.5301 20.9352 34.5277 20.9149 34.5304 20.8951L34.2474 18.1461C34.2429 18.1271 34.2421 18.1074 34.2452 18.0881C34.2483 18.0688 34.2551 18.0504 34.2654 18.0338C34.2912 18.0054 34.3262 17.9871 34.3642 17.9821Z" fill="#212427" stroke="#212427" stroke-width="0.369231"/>
<path d="M28.7588 8.76305L31.8492 5.58731C31.8743 5.55577 31.9104 5.53491 31.9503 5.52892C31.9897 5.53474 32.0256 5.5547 32.0514 5.58506L34.2187 7.69624C34.2516 7.72184 34.2739 7.75859 34.2816 7.79955C34.2766 7.83922 34.2565 7.87543 34.2254 7.90062L33.9379 8.19483C33.914 8.22659 33.8785 8.24758 33.8391 8.25323C33.798 8.24591 33.7606 8.22447 33.7336 8.19259L32.0491 6.55306L31.1508 7.48063L32.7633 9.05278C32.7968 9.07879 32.8193 9.11649 32.8262 9.15834C32.8262 9.18529 32.806 9.22122 32.7656 9.2639L32.4803 9.55811C32.4557 9.58901 32.4205 9.60978 32.3815 9.61651C32.34 9.61016 32.3024 9.58853 32.276 9.55587L30.6634 7.98372L29.7358 8.93374L31.4203 10.5755C31.4629 10.6159 31.4854 10.6496 31.4854 10.6788C31.4791 10.7203 31.4574 10.758 31.4248 10.7844L31.1373 11.0786C31.1256 11.0945 31.1108 11.1079 31.0939 11.1179C31.0769 11.128 31.058 11.1344 31.0385 11.137C31.0093 11.137 30.9756 11.119 30.9329 11.0786L28.7656 8.96743C28.7237 8.92701 28.7034 8.89332 28.7049 8.86637C28.7094 8.82643 28.7287 8.78959 28.7588 8.76305Z" fill="#212427" stroke="#212427" stroke-width="0.369231"/>
<path d="M18.4434 5.67722L16.7275 1.11574C16.705 1.05959 16.6983 1.02366 16.7118 1.00344C16.7253 0.983229 16.7522 0.974244 16.8016 0.974244H17.4484C17.4915 0.973418 17.5336 0.987169 17.5678 1.01326C17.6021 1.03936 17.6265 1.07626 17.6371 1.11798L18.6433 4.09384L19.7393 1.05285C19.7797 0.958524 19.8201 0.911359 19.8561 0.913605H19.9504C19.9863 0.913605 20.0223 0.963015 20.0627 1.05734L21.0868 4.12079L22.1671 1.16964C22.178 1.12795 22.2029 1.09129 22.2377 1.06591C22.2725 1.04052 22.315 1.02797 22.358 1.03039H23.0049C23.0543 1.03039 23.0835 1.04162 23.0947 1.06184C23.1059 1.08205 23.0947 1.11798 23.0767 1.17189L21.2463 5.69968C21.2036 5.78952 21.1699 5.83443 21.143 5.83443H21.0868C21.0599 5.83443 21.0262 5.78952 20.988 5.69968L19.8943 2.47228L18.7129 5.67722C18.6702 5.76481 18.6365 5.80973 18.6096 5.80973H18.5489C18.5265 5.80299 18.4906 5.75583 18.4434 5.67722Z" fill="#212427" stroke="#212427" stroke-width="0.369231"/>
<path d="M7.5061 11.5935L4.7234 7.88321C4.71755 7.87775 4.71289 7.87114 4.7097 7.8638C4.70651 7.85646 4.70487 7.84854 4.70487 7.84054C4.70487 7.83254 4.70651 7.82462 4.7097 7.81728C4.71289 7.80993 4.71755 7.80333 4.7234 7.79787L4.75709 7.76418C4.77245 7.75531 4.78988 7.75064 4.80762 7.75064C4.82536 7.75064 4.84279 7.75531 4.85816 7.76418L8.94799 8.88714L7.99571 4.75688C7.98911 4.74016 7.98708 4.72197 7.98985 4.70421C7.99261 4.68644 8.00006 4.66974 8.01144 4.65581L8.04737 4.62437C8.05283 4.61852 8.05944 4.61386 8.06678 4.61067C8.07412 4.60748 8.08204 4.60583 8.09004 4.60583C8.09804 4.60583 8.10596 4.60748 8.1133 4.61067C8.12064 4.61386 8.12725 4.61852 8.13271 4.62437L11.7262 7.54408C11.8026 7.60247 11.8003 7.66985 11.7262 7.74396L11.3421 8.1123C11.3017 8.14973 11.2703 8.16769 11.2478 8.1662C11.2085 8.15667 11.1722 8.13736 11.1423 8.11005L9.03558 6.32004L9.82614 9.49354C9.84411 9.60734 9.83962 9.67696 9.81267 9.70241L9.76326 9.74958C9.73481 9.77803 9.66518 9.77803 9.55439 9.74958L6.44153 8.83548L8.10352 11.0208C8.13053 11.052 8.1484 11.0901 8.15517 11.1308C8.14865 11.1686 8.12772 11.2025 8.09678 11.2252L7.71273 11.5957C7.62064 11.6788 7.55551 11.6766 7.5061 11.5935Z" fill="#212427" stroke="#212427" stroke-width="0.369231"/>
<path d="M5.53977 22.3421L1.13326 19.82L1.07038 19.775C1.05111 19.7625 1.03307 19.7483 1.01648 19.7324C1.0139 19.7271 1.01256 19.7214 1.01256 19.7155C1.01256 19.7097 1.0139 19.7039 1.01648 19.6987V19.6785C1.01648 19.6425 1.06364 19.6044 1.15797 19.5639L5.81826 17.5426C5.83278 17.5337 5.8495 17.5289 5.86655 17.5289C5.8836 17.5289 5.90032 17.5337 5.91484 17.5426C5.92898 17.5525 5.94006 17.5661 5.94681 17.582C5.95356 17.5979 5.95571 17.6154 5.95302 17.6324L5.91933 18.2568C5.91552 18.2988 5.89912 18.3386 5.87226 18.3711C5.8454 18.4035 5.80936 18.4271 5.76885 18.4387L4.82332 18.825L4.70653 20.9519L5.6049 21.4393C5.64637 21.4609 5.68364 21.4899 5.71495 21.5246C5.73464 21.5577 5.74255 21.5965 5.73741 21.6347L5.70148 22.2613C5.70223 22.2786 5.6981 22.2957 5.68955 22.3108C5.681 22.3258 5.66838 22.3382 5.65314 22.3464C5.6379 22.3546 5.62065 22.3583 5.60338 22.3572C5.58611 22.356 5.56951 22.35 5.55549 22.3399L5.53977 22.3421ZM2.382 19.7661L4.01479 20.633L4.10013 19.0608L2.382 19.7481V19.7661Z" fill="#212427" stroke="#212427" stroke-width="0.369231"/>
<path d="M10.6049 32.2264L10.2141 32.2714C10.1423 32.2871 10.0928 32.2713 10.0681 32.2489C10.0516 32.2218 10.0423 32.1908 10.0412 32.1591C10.0006 31.6668 9.81451 31.1977 9.50666 30.8115C9.08891 30.2695 8.70262 30.137 8.34776 30.414C8.26773 30.4693 8.20556 30.5468 8.16887 30.637C8.13217 30.7271 8.12253 30.826 8.14113 30.9215C8.21911 31.2344 8.34893 31.532 8.52519 31.802C8.72139 32.1179 8.85484 32.4686 8.91823 32.8351C8.94426 33.0264 8.91594 33.2211 8.83651 33.3971C8.75707 33.573 8.62973 33.723 8.46904 33.83C8.18761 34.0402 7.84033 34.143 7.48982 34.1198C7.04063 34.1018 6.6184 33.8502 6.23884 33.3584C6.05585 33.1325 5.91234 32.8774 5.81436 32.6037C5.72026 32.3218 5.65774 32.0303 5.62794 31.7346C5.62794 31.6537 5.66163 31.6043 5.7627 31.5886L6.15349 31.5437C6.22686 31.5302 6.27627 31.5392 6.30172 31.5706C6.31687 31.5965 6.32464 31.626 6.32418 31.656C6.34568 32.0949 6.49823 32.5174 6.76214 32.8688C6.91175 33.1097 7.14544 33.2866 7.41795 33.3651C7.5141 33.3816 7.61267 33.3776 7.70714 33.3532C7.8016 33.3288 7.88982 33.2846 7.96595 33.2236C8.05039 33.1652 8.11227 33.0796 8.14128 32.9812C8.1703 32.8827 8.1647 32.7772 8.12541 32.6824C8.03032 32.4125 7.90685 32.1535 7.75708 31.9098C7.54677 31.5822 7.40752 31.2142 7.34832 30.8295C7.32764 30.6312 7.36247 30.431 7.44893 30.2514C7.53539 30.0717 7.67007 29.9196 7.83794 29.8121C7.9884 29.6931 8.16308 29.6086 8.34971 29.5643C8.53634 29.5201 8.73039 29.5173 8.91823 29.556C9.37571 29.6579 9.77723 29.9301 10.0412 30.3174C10.4572 30.8145 10.7069 31.4295 10.7554 32.076C10.7531 32.1591 10.706 32.2085 10.6049 32.2264Z" fill="#212427" stroke="#212427" stroke-width="0.369231"/>
<path d="M22.5577 16.5261V18.2629C22.562 18.5833 22.6885 18.89 22.9114 19.1203C23.1465 19.3357 23.4502 19.4609 23.7688 19.474C24.0894 19.4739 24.3969 19.3467 24.6239 19.1203C24.8474 18.8903 24.9748 18.5836 24.98 18.2629V16.5261C24.9754 16.206 24.8479 15.8998 24.6239 15.671C24.3903 15.4545 24.0871 15.3282 23.7688 15.315C23.4474 15.3169 23.1396 15.4447 22.9114 15.671C22.6888 15.9006 22.5624 16.2064 22.5577 16.5261Z" fill="#212427"/>
<path d="M14.8583 16.5262V18.2629C14.8625 18.5834 14.989 18.8901 15.2119 19.1204C15.319 19.2332 15.4533 19.3166 15.6019 19.3626C15.7453 19.4393 15.907 19.4754 16.0694 19.4668C16.3906 19.466 16.6986 19.339 16.9269 19.1131C17.1489 18.8823 17.2753 18.5759 17.2805 18.2557V16.5189C17.2759 16.1992 17.1494 15.8934 16.9269 15.6638C16.6927 15.4465 16.3886 15.3202 16.0694 15.3078C15.7482 15.3107 15.4407 15.4384 15.2119 15.6638C14.9904 15.8941 14.8641 16.1995 14.8583 16.5189V16.5262Z" fill="#212427"/>
<path d="M15.7709 23.9112C16.6408 24.5127 17.6337 24.9132 18.6776 25.0836C20.2796 25.3994 21.9417 25.1276 23.3598 24.3182C23.6781 24.1372 23.9733 23.9184 24.2391 23.6666C24.3824 23.4916 24.4552 23.2694 24.4434 23.0435C24.4315 22.8176 24.3358 22.6042 24.1749 22.4452C24.014 22.2861 23.7996 22.1928 23.5736 22.1835C23.3476 22.1742 23.1262 22.2496 22.9528 22.3949L22.8971 22.4458C22.8726 22.4646 22.8492 22.4849 22.8269 22.5063C22.6816 22.6347 22.8608 22.4433 22.885 22.4627C22.9092 22.4821 22.3037 22.8406 22.2625 22.8648L22.0372 22.9811C21.9961 23.0005 21.7175 23.1143 21.9355 23.0295C21.7659 23.0949 21.5964 23.1579 21.4244 23.2088C21.0209 23.3407 20.599 23.4077 20.1745 23.4074C19.9166 23.4123 19.6586 23.4026 19.4018 23.3783C19.2856 23.3783 19.2686 23.3638 19.3485 23.3783L19.1572 23.3468C19.0336 23.325 18.915 23.2984 18.7914 23.2718C18.5904 23.2233 18.3942 23.1676 18.2004 23.1046C18.0962 23.0707 17.9945 23.0344 17.8928 22.9956C17.854 22.9811 17.5512 22.8503 17.7644 22.9472C17.3887 22.7863 17.0301 22.5883 16.6937 22.3561C16.2989 22.0655 15.6788 22.2907 15.4511 22.6807C15.335 22.8902 15.3039 23.1364 15.3643 23.3682C15.4247 23.6 15.5721 23.7996 15.7757 23.9258L15.7709 23.9112Z" fill="#212427"/>
</svg>
