<svg width="24" height="24" viewBox="0 0 24 24" fill="none" xmlns="http://www.w3.org/2000/svg">
<path d="M17.7602 4.31999C17.7602 5.38038 18.6198 6.23999 19.6802 6.23999C20.7406 6.23999 21.6002 5.38038 21.6002 4.31999C21.6002 3.25961 20.7406 2.39999 19.6802 2.39999C18.6198 2.39999 17.7602 3.25961 17.7602 4.31999ZM17.7602 4.31999H6.59977M17.7602 19.68C17.7602 20.7404 18.6198 21.6 19.6802 21.6C20.7406 21.6 21.6002 20.7404 21.6002 19.68C21.6002 18.6196 20.7406 17.76 19.6802 17.76C18.6198 17.76 17.7602 18.6196 17.7602 19.68ZM17.7602 19.68H12.2402C11.71 19.68 11.2802 19.2502 11.2802 18.72V5.27999M17.4002 12H11.4002M21.6002 12C21.6002 13.0604 20.7406 13.92 19.6802 13.92C18.6198 13.92 17.7602 13.0604 17.7602 12C17.7602 10.9396 18.6198 10.08 19.6802 10.08C20.7406 10.08 21.6002 10.9396 21.6002 12ZM6.23977 4.31999C6.23977 5.38038 5.38015 6.23999 4.31977 6.23999C3.25938 6.23999 2.39977 5.38038 2.39977 4.31999C2.39977 3.25961 3.25938 2.39999 4.31977 2.39999C5.38015 2.39999 6.23977 3.25961 6.23977 4.31999Z" stroke="#45505E" stroke-width="2" stroke-linecap="round"/>
</svg>
